<svg xmlns="http://www.w3.org/2000/svg" version="1.1" xmlns:xlink="http://www.w3.org/1999/xlink" xmlns:svgjs="http://svgjs.dev/svgjs" width="2560" height="1440" preserveAspectRatio="none" viewBox="0 0 2560 1440"><g mask="url(&quot;#SvgjsMask1499&quot;)" fill="none"><rect width="2560" height="1440" x="0" y="0" fill="url(&quot;#SvgjsLinearGradient1500&quot;)"></rect><path d="M-243.02 799.03C-50.89 800.29 130.57 979.03 504.16 979.03 877.75 979.03 836.84 780.43 1251.34 799.03 1665.84 817.63 1720.39 1609.49 1998.52 1701.14" stroke="rgba(118, 175, 178, 0.58)" stroke-width="2"></path><path d="M-204.39 679.56C-21.2 680.95 150.78 859.56 505.95 859.56 861.12 859.56 819.06 659.71 1216.29 679.56 1613.52 699.41 1657.25 1479.91 1926.63 1575.51" stroke="rgba(118, 175, 178, 0.58)" stroke-width="2"></path><path d="M-146.24 715.48C67.83 716.49 272.34 895.48 690.93 895.48 1109.51 895.48 1083.99 706.74 1528.1 715.48 1972.21 724.22 2085.74 1433.79 2365.27 1490.04" stroke="rgba(118, 175, 178, 0.58)" stroke-width="2"></path><path d="M-398 499.04C-69.85 511.86 267.93 999.66 796.22 1046.24 1324.51 1092.82 1188.88 1588.73 1393.33 1635.39" stroke="rgba(118, 175, 178, 0.58)" stroke-width="2"></path><path d="M-356.75 709.47C-66.1 742.64 82.36 1371.36 597.83 1386.27 1113.3 1401.18 1312.35 1490.37 1552.41 1490.52" stroke="rgba(118, 175, 178, 0.58)" stroke-width="2"></path></g><defs><mask id="SvgjsMask1499"><rect width="2560" height="1440" fill="#ffffff"></rect></mask><linearGradient x1="50%" y1="0%" x2="50%" y2="100%" gradientUnits="userSpaceOnUse" id="SvgjsLinearGradient1500"><stop stop-color="rgba(0, 12, 24, 1)" offset="0"></stop><stop stop-color="rgba(45, 0, 57, 1)" offset="1"></stop></linearGradient></defs></svg>