<svg xmlns="http://www.w3.org/2000/svg" version="1.1" xmlns:xlink="http://www.w3.org/1999/xlink" xmlns:svgjs="http://svgjs.dev/svgjs" width="3840" height="2160" preserveAspectRatio="none" viewBox="0 0 3840 2160"><g mask="url(&quot;#SvgjsMask1022&quot;)" fill="none"><rect width="3840" height="2160" x="0" y="0" fill="rgba(11, 0, 29, 1)"></rect><path d="M567.98 2321.97C1019.32 2308.46 1327.69 1661.24 2236.56 1630.51 3145.43 1599.78 3447.51 891.87 3905.14 874.51" stroke="rgba(51, 186, 194, 0.58)" stroke-width="2"></path><path d="M1859.33 2351.02C2232.35 2175.36 2065.09 982.6 2771.5 976.98 3477.91 971.36 4110.12 1636.12 4595.84 1646.58" stroke="rgba(51, 186, 194, 0.58)" stroke-width="2"></path><path d="M686.03 2397.92C1025.98 2376.62 1274.83 1741.5 1879.27 1740.24 2483.71 1738.98 2475.89 2010.24 3072.51 2010.24 3669.13 2010.24 3959.9 1741.92 4265.75 1740.24" stroke="rgba(51, 186, 194, 0.58)" stroke-width="2"></path><path d="M1589.53 2289.99C1992.5 2260.89 2173.3 1538.2 2985.16 1475.19 3797.02 1412.18 3971.85 645.21 4380.79 611.19" stroke="rgba(51, 186, 194, 0.58)" stroke-width="2"></path><path d="M1535.09 2564.03C1826.51 2544.77 1698.48 2033.92 2552.99 1990.76 3407.5 1947.6 4025.34 1043.27 4588.79 1018.76" stroke="rgba(51, 186, 194, 0.58)" stroke-width="2"></path></g><defs><mask id="SvgjsMask1022"><rect width="3840" height="2160" fill="#ffffff"></rect></mask></defs></svg>