<svg xmlns="http://www.w3.org/2000/svg" version="1.1" xmlns:xlink="http://www.w3.org/1999/xlink" xmlns:svgjs="http://svgjs.dev/svgjs" width="3840" height="2160" preserveAspectRatio="none" viewBox="0 0 3840 2160"><g mask="url(&quot;#SvgjsMask1036&quot;)" fill="none"><rect width="3840" height="2160" x="0" y="0" fill="rgba(11, 0, 29, 1)"></rect><path d="M-557.6 1168.19C-78.16 1163.9 515.61 630.96 1294.77 671.39 2073.92 711.82 1791.81 2274.03 2220.95 2589.18" stroke="rgba(51, 186, 194, 0.58)" stroke-width="2"></path><path d="M-452.23 1557.33C-18.74 1552.05 349.98 1053.16 1209.16 1060.53 2068.35 1067.9 2338.19 2350.31 2870.56 2435.54" stroke="rgba(51, 186, 194, 0.58)" stroke-width="2"></path><path d="M-736.14 441.88C-238.06 467.62 231.88 1259.09 1040.64 1349.08 1849.4 1439.07 1613.19 2224.82 1929.03 2310.56" stroke="rgba(51, 186, 194, 0.58)" stroke-width="2"></path><path d="M-222.87 366.09C273.18 408.7 481.64 1347.4 1464.1 1424.49 2446.55 1501.58 2664.55 2369.82 3151.06 2404.53" stroke="rgba(51, 186, 194, 0.58)" stroke-width="2"></path><path d="M-107.23 1383.86C236.77 1324.91 357.1 444.57 953.91 476.66 1550.71 508.75 1539.47 2174.36 2015.04 2484.45" stroke="rgba(51, 186, 194, 0.58)" stroke-width="2"></path></g><defs><mask id="SvgjsMask1036"><rect width="3840" height="2160" fill="#ffffff"></rect></mask></defs></svg>