<svg width="28" height="28" viewBox="0 0 28 28" fill="none" xmlns="http://www.w3.org/2000/svg">
<path d="M14 27.3333C12.1778 27.3333 10.4556 26.9831 8.83333 26.2827C7.21111 25.5822 5.79422 24.6267 4.58267 23.416C3.372 22.2053 2.41644 20.7889 1.716 19.1667C1.01555 17.5444 0.665777 15.8222 0.666666 14C0.666666 12.1556 1.01689 10.4276 1.71733 8.81601C2.41778 7.20445 3.37333 5.79378 4.584 4.58401C5.79467 3.37245 7.21067 2.41689 8.832 1.71734C10.4533 1.01778 12.176 0.667561 14 0.666672C15.8444 0.666672 17.5724 1.01689 19.184 1.71734C20.7956 2.41778 22.2062 3.37334 23.416 4.58401C24.6276 5.79467 25.5831 7.20578 26.2827 8.81734C26.9822 10.4289 27.3324 12.1564 27.3333 14V15.9333C27.3333 17.2444 26.8836 18.3613 25.984 19.284C25.0844 20.2067 23.9787 20.6676 22.6667 20.6667C21.8667 20.6667 21.1222 20.4889 20.4333 20.1333C19.7444 19.7778 19.1778 19.3111 18.7333 18.7333C18.1333 19.3333 17.4276 19.8058 16.616 20.1507C15.8044 20.4956 14.9324 20.6676 14 20.6667C12.1556 20.6667 10.5831 20.0164 9.28267 18.716C7.98222 17.4156 7.33244 15.8436 7.33333 14C7.33333 12.1556 7.98356 10.5831 9.284 9.28267C10.5844 7.98223 12.1564 7.33245 14 7.33334C15.8444 7.33334 17.4169 7.98356 18.7173 9.284C20.0178 10.5844 20.6676 12.1564 20.6667 14V15.9333C20.6667 16.5778 20.8667 17.0831 21.2667 17.4493C21.6667 17.8156 22.1333 17.9991 22.6667 18C23.2 18 23.6667 17.8164 24.0667 17.4493C24.4667 17.0822 24.6667 16.5769 24.6667 15.9333V14C24.6667 11.0889 23.6164 8.58312 21.516 6.48267C19.4156 4.38223 16.9102 3.33245 14 3.33334C11.0889 3.33334 8.58311 4.38356 6.48267 6.484C4.38222 8.58445 3.33244 11.0898 3.33333 14C3.33333 16.9111 4.38355 19.4169 6.484 21.5173C8.58444 23.6178 11.0898 24.6676 14 24.6667H20.6667V27.3333H14ZM14 18C15.1111 18 16.0556 17.6111 16.8333 16.8333C17.6111 16.0556 18 15.1111 18 14C18 12.8889 17.6111 11.9444 16.8333 11.1667C16.0556 10.3889 15.1111 10 14 10C12.8889 10 11.9444 10.3889 11.1667 11.1667C10.3889 11.9444 10 12.8889 10 14C10 15.1111 10.3889 16.0556 11.1667 16.8333C11.9444 17.6111 12.8889 18 14 18Z" fill="black"/>
</svg>
