<svg x="0" y="0" width="2560" height="1280" viewBox="0 0 2560 1280" xmlns="http://www.w3.org/2000/svg" xmlns:xlink="http://www.w3.org/1999/xlink" xmlns:fi="http://pattern.flaticon.com/"><rect x="0px" y="0px" width="100%" height="100%" opacity="0" fill="#d9fdff"/><defs><g transform="matrix(0.1868314892053604 0 0 0.1868314892053604 14 135)" id="L1_0"><path d="M320.973,200.981c-0.8-18.4-4-38.8-8.8-58c-4.8-18.4-10.8-35.6-18-48.8c-28-49.2-58.4-41.6-94.8-32    c-11.6,2.8-24,6-36.8,7.2h-4c-12.8-1.2-25.2-4.4-36.8-7.2c-36.4-9.2-66.8-17.2-94.8,32.4c-7.2,13.2-13.6,30.4-18,48.8    c-4.8,19.2-8,39.6-8.8,58c-0.8,20.4,1.2,35.2,5.6,45.6c4.4,9.6,10.8,15.6,19.2,18c7.6,2,16.4,1.2,25.6-2.8    c15.6-6.4,33.6-20,51.2-36.4c12.4-12,35.6-18,58.8-18s46.4,6,58.8,18c17.6,16.4,35.6,30,51.2,36.4c9.2,3.6,18,4.8,25.6,2.8    c8-2.4,14.8-8,19.2-18.4C319.773,236.581,321.773,221.781,320.973,200.981z M301.773,240.981c-2.4,5.6-5.6,8.8-9.6,10    c-4.4,1.2-10,0.4-16.4-2c-14-5.6-30.4-18-46.4-33.2c-15.2-15.2-42-22.8-68.8-22.8s-53.6,7.6-69.2,22c-16.4,15.2-32.8,28-46.4,33.2    c-6.4,2.4-12,3.6-16.4,2c-4-1.2-7.2-4.4-9.6-10c-3.2-7.6-4.8-20-4-38.4c0.8-17.2,3.6-36.8,8.4-55.2c4.4-17.2,10-33.2,16.8-45.2    c22-39.6,47.6-33.2,78-25.2c12.4,3.2,25.2,6.4,39.2,7.6c0.4,0,0.4,0,0.8,0h4.4c0.4,0,0.4,0,0.8,0c14.4-1.2,27.2-4.4,39.6-7.6    c30.4-7.6,56-14.4,78,25.2c6.8,12,12.4,27.6,16.8,45.2c4.4,18.4,7.6,37.6,8.4,55.2    C306.973,220.181,305.373,232.581,301.773,240.981z"/><path d="M123.773,122.981c-4-3.6-8.8-6.4-14.4-6.8c-0.4-5.2-2.8-10.4-6.4-14l-0.4-0.4c-4.4-4.4-10-6.8-16.4-6.8    c-6.4,0-12.4,2.8-16.4,6.8c-3.6,3.6-6.4,8.8-6.8,14.4c-5.6,0.4-10.4,2.8-14.4,6.4l-0.4,0.4c-4.4,4.4-6.8,10-6.8,16.4    c0,6.4,2.8,12.4,6.8,16.4c4,4,8.8,6.4,14.8,6.8c0.4,5.6,2.8,10.8,6.8,14.4c4.4,4.4,10,6.8,16.4,6.8c6.4,0,12.4-2.8,16.4-6.8    c3.6-4,6.4-8.8,6.8-14.4c5.6-0.4,10.8-2.8,14.4-6.8c4.4-4.4,6.8-10,6.8-16.4C130.573,132.981,127.773,126.981,123.773,122.981z     M113.773,145.381c-1.6,1.6-3.6,2.4-6,2.4h-5.6c-4,0-7.6,3.2-7.6,7.6v5.2c0,2.4-0.8,4.4-2.4,6c-1.6,1.6-3.6,2.4-6,2.4    c-2.4,0-4.4-0.8-6-2.4c-1.6-1.6-2.4-3.6-2.4-6v-5.6c0-4-3.2-7.6-7.6-7.6h-5.6c-2.4,0-4.4-0.8-6-2.4c-1.2-1.2-2.4-3.2-2.4-5.6    c0-2.4,0.8-4.4,2.4-6c0,0,0,0,0.4-0.4c1.6-1.2,3.6-2,5.6-2h5.6c4,0,7.6-3.2,7.6-7.6v-5.6c0-2.4,0.8-4.4,2.4-6    c1.6-1.6,3.6-2.4,6-2.4c2.4,0,4.4,0.8,6,2.4c0,0,0,0,0.4,0.4c1.2,1.6,2,3.6,2,5.6v5.6c0,4,3.2,7.6,7.6,7.6h5.6    c2.4,0,4.4,0.8,6,2.4c1.6,1.6,2.4,3.6,2.4,6C116.173,141.781,115.373,143.781,113.773,145.381z"/><circle cx="230" cy="110" r="14"/><circle cx="230" cy="167" r="14"/><circle cx="201" cy="139" r="14"/><circle cx="258" cy="139" r="14"/></g><g transform="matrix(0.1171875 0 0 0.1171875 170 199)" id="L1_2"><path d="M505.025,19.549c-14.688-14.686-44.146-6.307-92.708,26.377c-41.254,27.766-90.738,69.819-139.336,118.417    c-72.047,72.046-126.823,142.784-145.061,186.458c-3.002-1.088-6.115-1.958-9.327-2.593c-18.872-3.733-39.369,1.04-56.238,13.086    c-24.207,17.286-30.618,41.971-31.549,46.132c-5.096,19.032-14.747,37.191-27.921,52.529c-4.237,4.933-3.753,12.349,1.09,16.691    c16.927,15.17,38.58,22.779,61.102,22.779c21.706,0,44.22-7.069,64.077-21.249c9.311-6.649,16.36-14.001,17.725-15.456    c16.872-18.131,24.036-41.904,20.482-63.625c42.85-15.361,117.553-72.181,192.871-147.499    c48.598-48.598,90.652-98.083,118.417-139.336C511.332,63.696,519.713,34.238,505.025,19.549z M129.392,446.415    c-0.642,0.685-6.495,6.852-14.13,12.302c-27.732,19.8-61.684,22.09-86.345,6.845c11.549-15.834,20.132-33.683,25.063-52.254    v-0.001c0.055-0.208,0.105-0.418,0.149-0.63c0.041-0.189,4.193-19.127,22.119-31.927c11.53-8.235,25.277-11.547,37.711-9.089    c10.255,2.026,18.876,7.88,24.275,16.48C148.829,405.018,145.104,429.532,129.392,446.415z M159.217,376.663    c-0.245-0.41-3.87-7.77-10.624-13.24c5.819-15.557,18.346-36.584,35.806-60.729l37.455,37.455    C195.505,359.116,173.914,371.48,159.217,376.663z M241.198,325.685l-42.301-42.301c7.31-9.41,15.219-19.157,23.648-29.127    l47.806,47.806C260.233,310.608,250.489,318.493,241.198,325.685z M455.159,104.266c-26.926,38.916-66.643,85.235-111.832,130.422    c-18.973,18.973-37.367,36.232-54.844,51.694l-50.257-50.257c15.94-18.032,33.32-36.538,51.661-54.877    c45.188-45.189,91.507-84.905,130.422-111.834c47.916-33.155,64.45-33.208,67.626-32.774    C488.371,39.813,488.313,56.353,455.159,104.266z"/><path d="M119.256,414.119c-5.783-3.183-13.052-1.076-16.236,4.708c-0.322,0.585-0.711,1.132-1.158,1.626    c-0.894,0.93-3.832,3.77-6.884,5.951c-4.63,3.305-9.626,5.674-14.85,7.041c-6.387,1.671-10.209,8.203-8.538,14.59    c1.406,5.372,6.25,8.93,11.555,8.93c1.002,0,2.019-0.127,3.034-0.391c8.049-2.106,15.684-5.71,22.693-10.714    c4.499-3.213,10.471-9.095,10.512-9.14c1.777-1.927,3.319-4.069,4.583-6.366C127.149,424.57,125.04,417.301,119.256,414.119z"/></g><g transform="matrix(0.18459266424179077 0 0 0.18459266424179077 101 11.000000953674316)" id="L1_3"><path d="M84.821,210.938c-4.646-3.671-10.469-5.693-16.396-5.693c-8.055,0-15.556,3.579-20.58,9.821   c-4.393,5.464-6.382,12.3-5.598,19.247c0.785,6.962,4.258,13.198,9.778,17.561c4.646,3.672,10.467,5.694,16.393,5.694   c8.061,0,15.563-3.586,20.583-9.834c4.389-5.455,6.376-12.283,5.595-19.227C93.813,221.545,90.342,215.305,84.821,210.938z    M79.648,240.215c-2.732,3.402-6.826,5.354-11.23,5.354c-3.283,0-6.379-1.075-8.951-3.108c-2.991-2.364-4.871-5.735-5.296-9.493   c-0.422-3.743,0.652-7.431,3.023-10.379c2.733-3.396,6.827-5.344,11.231-5.344c3.286,0,6.383,1.075,8.954,3.107   c2.99,2.364,4.869,5.737,5.292,9.497C83.092,233.589,82.02,237.269,79.648,240.215z"/><path d="M190.33,149.484c3.958,0,7.785-0.867,11.384-2.582c6.362-3.044,11.141-8.369,13.454-14.995   c2.301-6.584,1.887-13.669-1.163-19.944c-4.363-8.994-13.681-14.806-23.738-14.806c-3.966,0-7.801,0.87-11.399,2.587   c-6.36,3.034-11.141,8.355-13.458,14.983c-2.305,6.589-1.892,13.675,1.163,19.953C170.95,143.673,180.275,149.484,190.33,149.484z    M176.736,118.688c1.254-3.585,3.846-6.467,7.298-8.114c1.972-0.94,4.068-1.417,6.232-1.417c5.491,0,10.571,3.157,12.943,8.048   c1.645,3.384,1.868,7.199,0.63,10.745c-1.253,3.587-3.848,6.473-7.296,8.123c-1.965,0.937-4.056,1.411-6.214,1.411   c-5.496,0-10.586-3.162-12.968-8.055C175.718,126.05,175.496,122.236,176.736,118.688z"/><path d="M125.035,107.081c1.93,0.436,3.905,0.657,5.87,0.657c12.352,0,22.905-8.354,25.665-20.327   c1.551-6.789,0.358-13.778-3.356-19.682c-3.745-5.95-9.598-10.086-16.476-11.644c-1.938-0.44-3.921-0.664-5.895-0.664   c-12.344,0-22.886,8.363-25.637,20.334c-1.564,6.784-0.379,13.774,3.336,19.682C112.29,101.395,118.149,105.531,125.035,107.081z    M116.901,78.447c1.491-6.491,7.225-11.025,13.942-11.025c1.079,0,2.168,0.123,3.239,0.366c3.752,0.85,6.939,3.099,8.975,6.333   c2.006,3.187,2.65,6.957,1.816,10.605c-1.471,6.381-7.346,11.012-13.969,11.012c-1.076,0-2.161-0.122-3.229-0.363   c-3.753-0.845-6.94-3.092-8.975-6.326C116.698,85.864,116.059,82.1,116.901,78.447z"/><path d="M77.356,122.05c5.514-4.369,8.981-10.61,9.765-17.573c0.781-6.942-1.202-13.77-5.593-19.235   c-5.032-6.239-12.539-9.817-20.594-9.817c-5.921,0-11.738,2.016-16.385,5.681c-5.515,4.356-8.984,10.587-9.771,17.545   c-0.786,6.951,1.202,13.791,5.601,19.265c5.028,6.246,12.536,9.829,20.6,9.829C66.905,127.744,72.722,125.722,77.356,122.05z    M49.731,110.393c-2.376-2.956-3.451-6.648-3.027-10.396c0.424-3.753,2.302-7.119,5.282-9.474c2.571-2.028,5.666-3.1,8.949-3.1   c4.408,0,8.511,1.95,11.246,5.341c2.365,2.946,3.437,6.629,3.016,10.37c-0.423,3.764-2.303,7.142-5.292,9.51   c-2.559,2.027-5.646,3.099-8.925,3.099C56.567,115.744,52.467,113.792,49.731,110.393z"/><path d="M322.745,63.336c-1.037-1.046-2.887-2.293-5.806-2.293c-3.423,0-12.516,0-67.74,46.992c-1.11,0.944-2.23,1.901-3.354,2.865   c-9.867-25.739-27.203-48.686-49.542-65.284c-25.614-19.031-56.114-29.096-88.2-29.104c-0.01,0-0.017,0-0.025,0   c-21.654,0-47.976,7.566-68.697,19.749C13.981,51.193-0.005,71.163,0,92.49c0.008,25.748,14.53,36.518,26.199,45.171   c9.515,7.057,17.03,12.63,17.034,24.844c0.003,12.213-7.508,17.781-17.018,24.831c-11.665,8.648-26.184,19.412-26.176,45.163   c0.006,21.324,14.001,41.299,39.406,56.244c20.736,12.198,47.072,19.78,68.73,19.786c0.015,0,0.028,0,0.042,0   c39.305,0,76.254-15.171,104.044-42.72c27.436-27.197,42.695-63.246,43.096-101.661c9.316-10.601,18.341-21.138,26.58-31.067   c14.096-16.986,24.935-31.002,32.216-41.657C323.799,77.311,328.023,68.655,322.745,63.336z M203.814,257.287   c-25.529,25.308-59.475,39.242-95.596,39.242c-0.011,0-0.027,0-0.038,0c-38.707-0.011-96.13-26.903-96.141-64.034   c-0.006-19.707,10.354-27.388,21.323-35.52c10.253-7.602,21.874-16.218,21.87-34.474c-0.006-18.253-11.63-26.874-21.886-34.479   C22.372,119.883,12.006,112.196,12,92.487c-0.005-22.801,20.963-38.533,33.463-45.882c18.698-10.993,43.273-18.094,62.615-18.094   c0.007,0,0.015,0,0.021,0c29.491,0.008,57.517,9.254,81.048,26.736c21.702,16.125,38.268,38.761,46.994,64.049   c-26.025,22.724-54.207,48.924-75.195,69.98c-34.859,4.512-39.608,27.744-43.08,44.811c-2.956,14.532-4.875,21.558-16.092,22.458   c-2.764,0.222-5.015,2.308-5.446,5.047c-0.432,2.738,1.069,5.416,3.631,6.477c0.721,0.298,17.877,7.308,37.921,7.309   c0.003,0,0.005,0,0.007,0c13.968,0,25.95-3.386,35.612-10.063c11.906-8.228,19.979-21.273,24.036-38.767   c13.713-13.874,29.382-30.604,44.876-47.837C238.845,208.381,225.456,235.833,203.814,257.287z M185.48,225.412   c-6.358,25.196-22.356,37.968-47.594,37.967c0,0-0.004,0-0.006,0c-6.655,0-13.028-0.908-18.386-2.04   c6.4-6.527,8.399-16.349,10.13-24.858c3.297-16.208,6.415-31.547,31.923-35.191L185.48,225.412z M268.336,130.652   c-23.785,28.337-52.575,60.159-76.275,84.354l-3.669-3.698l-16.189-16.317c21.488-21.39,49.054-46.895,74.773-69.216l0,0   c2.998-2.602,5.977-5.171,8.913-7.675c29.847-25.455,45.489-36.533,53.468-41.354C304.592,84.773,293.616,100.534,268.336,130.652z   "/></g><g transform="matrix(0.1171877309679985 0 0 0.1171877309679985 267 302)" id="L1_5"><path d="M481.091,27.937H30.909C13.866,27.937,0,41.803,0,58.846v310.819c0,17.043,13.866,30.909,30.909,30.909h154.26v22.49    c0,20.617-16.774,37.391-37.391,37.391h-33.997c-6.518,0-11.803,5.284-11.803,11.803c0,6.519,5.285,11.803,11.803,11.803h284.436    c6.518,0,11.803-5.284,11.803-11.803c0-6.519-5.285-11.803-11.803-11.803h-33.998c-20.617,0-37.391-16.774-37.391-37.391v-22.489    h154.26c17.043,0,30.91-13.866,30.91-30.909V58.846C512,41.803,498.134,27.937,481.091,27.937z M195.92,460.457    c8.046-10.336,12.857-23.308,12.857-37.391v-22.49h94.447v22.49c0,14.083,4.811,27.056,12.857,37.391H195.92z M488.394,369.666    c0,4.027-3.276,7.304-7.304,7.304H30.909c-4.027,0-7.304-3.276-7.304-7.304v-62.033h464.789V369.666z M488.394,284.026H23.606    V58.846c0-4.027,3.276-7.304,7.304-7.304h450.18c4.027,0,7.305,3.276,7.305,7.304V284.026z"/><circle cx="256" cy="342" r="12"/><path d="M276.238,109.254c-4.61-4.609-12.081-4.609-16.693,0l-83.414,83.414c-4.609,4.609-4.609,12.083,0,16.693    c2.306,2.305,5.325,3.457,8.347,3.457c3.022,0,6.041-1.152,8.346-3.457l83.414-83.414    C280.847,121.338,280.847,113.864,276.238,109.254z"/><path d="M325.678,157.593c-4.608-4.609-12.079-4.609-16.692-0.001l-33.23,33.228c-4.609,4.61-4.609,12.084,0,16.693    c2.305,2.305,5.325,3.457,8.346,3.457c3.02,0,6.041-1.152,8.346-3.457l33.23-33.228    C330.287,169.676,330.287,162.202,325.678,157.593z"/></g></defs><g fi:class="KUsePattern"><pattern id="pattern_L1_0" width="350" height="350" patternUnits="userSpaceOnUse"><use xlink:href="#L1_0" x="-350" y="-350"/><use xlink:href="#L1_0" x="0" y="-350"/><use xlink:href="#L1_0" x="350" y="-350"/><use xlink:href="#L1_0" x="-350" y="0"/><use xlink:href="#L1_0" x="0" y="0"/><use xlink:href="#L1_0" x="350" y="0"/><use xlink:href="#L1_0" x="-350" y="350"/><use xlink:href="#L1_0" x="0" y="350"/><use xlink:href="#L1_0" x="350" y="350"/></pattern><rect x="0" y="0" width="100%" height="100%" fill="url(#pattern_L1_0)"/></g><g fi:class="KUsePattern"><pattern id="pattern_L1_2" width="350" height="350" patternUnits="userSpaceOnUse"><use xlink:href="#L1_2" x="-350" y="-350"/><use xlink:href="#L1_2" x="0" y="-350"/><use xlink:href="#L1_2" x="350" y="-350"/><use xlink:href="#L1_2" x="-350" y="0"/><use xlink:href="#L1_2" x="0" y="0"/><use xlink:href="#L1_2" x="350" y="0"/><use xlink:href="#L1_2" x="-350" y="350"/><use xlink:href="#L1_2" x="0" y="350"/><use xlink:href="#L1_2" x="350" y="350"/></pattern><rect x="0" y="0" width="100%" height="100%" fill="url(#pattern_L1_2)"/></g><g fi:class="KUsePattern"><pattern id="pattern_L1_3" width="350" height="350" patternUnits="userSpaceOnUse"><use xlink:href="#L1_3" x="-350" y="-350"/><use xlink:href="#L1_3" x="0" y="-350"/><use xlink:href="#L1_3" x="350" y="-350"/><use xlink:href="#L1_3" x="-350" y="0"/><use xlink:href="#L1_3" x="0" y="0"/><use xlink:href="#L1_3" x="350" y="0"/><use xlink:href="#L1_3" x="-350" y="350"/><use xlink:href="#L1_3" x="0" y="350"/><use xlink:href="#L1_3" x="350" y="350"/></pattern><rect x="0" y="0" width="100%" height="100%" fill="url(#pattern_L1_3)"/></g><g fi:class="KUsePattern"><pattern id="pattern_L1_5" width="350" height="350" patternUnits="userSpaceOnUse"><use xlink:href="#L1_5" x="-350" y="-350"/><use xlink:href="#L1_5" x="0" y="-350"/><use xlink:href="#L1_5" x="350" y="-350"/><use xlink:href="#L1_5" x="-350" y="0"/><use xlink:href="#L1_5" x="0" y="0"/><use xlink:href="#L1_5" x="350" y="0"/><use xlink:href="#L1_5" x="-350" y="350"/><use xlink:href="#L1_5" x="0" y="350"/><use xlink:href="#L1_5" x="350" y="350"/></pattern><rect x="0" y="0" width="100%" height="100%" fill="url(#pattern_L1_5)"/></g></svg>